<svg xmlns="http://www.w3.org/2000/svg" xmlns:xlink="http://www.w3.org/1999/xlink" preserveAspectRatio="xMidYMid meet" version="1.0" viewBox="0.0 -0.2 421.1 404.1" zoomAndPan="magnify" style="fill: rgb(0, 0, 0);" original_string_length="12389"><g id="__id54_s1gyo87vw"><path d="M419.6,357.5l-22.3-130.6c-1.4-8-5.9-14.5-11.9-18.8c-13.3-12.8-42.4-36.3-47.5-40.3c0.5-4.7,1.1-10,1.8-16.1 c0,0,0,0,0,0c0.2,0.1,0.5,0.1,0.7,0.1c0,0,28.4-23.4,35.5-36.8c7.5-14.1,1.3-22.8-2.8-24.7c0,0,12.4-16.3-7.8-27.5 c0,0-2.5-15.8-18.3-14.3c0,0-24.1-14.1-28.3-19.4c-4.2-5.3-14.7,7.9-10.4,17.7c0,0-6.1-4.8-8.3-10.6c-2.1-5.7-17.6,18.8,2.8,30 c0,0,0,0,0,0c-1,3.1-5.4,17.1-9.8,21.8c-2.6,2.8-6.2,5-9.1,6.8c-3.3,2.1-5.2,3.2-5,4.6c0.2,1.8,4.3,4.9,6.3,6.3 c-1.9,3.3-9.9,18.7,0.8,26c1.2,0.8,2.7,1.7,4.5,2.6c-0.7,3.9-2.1,12-2.1,12.1l-1.1,6.6l0.8,0l0,0l-38.6,2.1V83.6 c0-2.9-2.4-5.3-5.3-5.3h-160c0.4-1.2,0.8-2.5,1.2-3.7l9.9-1.2c0.7-4.1,0.9-8.3,0.5-12.4l-9.8-2c-0.6-3.8-1.8-7.4-3.5-10.8l6.8-7.3 c-2.1-3.6-4.7-6.9-7.6-9.8l-8.8,4.8c-2.9-2.5-6.1-4.5-9.6-6l0.5-10c-3.9-1.4-8-2.3-12.2-2.6l-3.6,9.3c-3.8,0-7.6,0.5-11.2,1.5l-6-8 c-3.9,1.5-7.6,3.4-11,5.8l3.2,9.5c-2.9,2.4-5.5,5.2-7.6,8.4l-9.7-2.3C3.5,45,1.9,48.9,0.8,52.9l8.5,5.2c-0.7,3.7-0.8,7.6-0.4,11.3 L0,74c0.8,4.1,2,8.1,3.8,11.9l9.9-1.5c1.9,3.3,4.2,6.3,7,9l-3.9,9.2c3.2,2.7,6.8,4.9,10.5,6.6l6.6-7.5c0.5,0.2,0.9,0.3,1.4,0.5 v209.2c0,2.9,2.4,5.3,5.3,5.3h99.5c-9.8,42.5-14.7,76.6-14.7,76.6h230l19.2,7.3c3,1.2,6.2,1.8,9.3,2c5.9,1.3,12-0.3,17.5-3.8 c6.5-3.5,11.8-9.1,14.8-16.4c0.1-0.2,0.1-0.3,0.2-0.5C419.8,374.4,421.1,365.9,419.6,357.5z M63.9,78.3H40.6c-2.5,0-4.6,1.8-5.2,4.1 c-2.6-1.8-4.8-4.3-6.4-7.3c-5.4-10.2-1.5-22.9,8.8-28.3c10.2-5.4,22.9-1.5,28.3,8.8C70.1,63.1,68.9,71.9,63.9,78.3z M288.2,153.1 L288.2,153.1L288.2,153.1L288.2,153.1z M339,151.5C339,151.5,339,151.5,339,151.5C339,151.5,339,151.5,339,151.5 C339,151.5,339,151.5,339,151.5z M336.5,167.4L336.5,167.4L336.5,167.4C336.5,167.4,336.5,167.4,336.5,167.4z M99.9,41.5l-5.4,4.3 c1.1,2.7,2.5,5.2,4.2,7.4l6.4-2.4c1.7,2,3.7,3.7,5.9,5.1l-1.3,6.7c2.5,1.3,5.2,2.3,8,3l3.4-6c2.6,0.4,5.2,0.4,7.8,0l3.3,6 c2.8-0.6,5.5-1.6,8.1-2.9l-1.3-6.8c2.2-1.4,4.3-3,6-5l6.4,2.5c1.8-2.3,3.2-4.7,4.3-7.4l-5.3-4.4c0.8-2.5,1.3-5.1,1.4-7.7l6.5-2.2 c-0.1-2.9-0.6-5.7-1.4-8.4l-6.9,0.1c-0.9-2.4-2.2-4.7-3.9-6.8l3.6-5.9c-1.9-2.1-4.1-4-6.5-5.5l-5.2,4.5c-2.3-1.3-4.8-2.2-7.3-2.7 l-1-6.8c-2.8-0.4-5.7-0.4-8.6-0.1L120.1,7c-2.6,0.5-5,1.4-7.4,2.6l-5.2-4.5c-2.4,1.5-4.6,3.4-6.6,5.5l3.5,5.9c-1.6,2-3,4.3-3.9,6.7 l-6.9-0.1c-0.9,2.7-1.4,5.6-1.5,8.4l6.5,2.3C98.7,36.4,99.1,39,99.9,41.5z M116.2,22.1c6.1-5.1,15.2-4.2,20.3,1.9 c5.1,6.1,4.2,15.2-1.9,20.3c-6.1,5.1-15.2,4.2-20.3-1.9C109.2,36.3,110,27.2,116.2,22.1z" style="fill: rgb(255, 255, 255);"/></g><g id="__id55_s1gyo87vw"><path d="M330.7,121.6c-0.1,10.9,1,27.1,8.3,29.8c-0.6,5.4-1.2,10.7-1.8,15.7c0,0-0.1-0.1-0.1-0.1l-35.2,9.9l-13.7-24 l-0.2,0l1.1-6.4c0,0,1.5-9,2.2-12.7c-1.9-0.9-3.6-1.8-4.9-2.8c-11.4-7.9-0.2-25.6-0.2-25.6s-6.4-4.3-6.6-6.2 c-0.2-1.9,8.8-5.4,14-10.8c4.5-4.8,8.9-18.6,10-22c0.4,0.2,0.8,0.4,1.3,0.6c23.3,10.7,26.3,9.6,26.3,9.6s-8.9,12.1-5.5,24.8 c4.1-0.3,18.9-0.9,19.6,7.6C345.9,117,337.5,120.3,330.7,121.6z M279.2,312.8l3.9,1.7l-12.9,37.2l-30.4-14c0,0,0,0-0.1,0 c-1.8-0.9-3.6-1.7-5.2-2.5c-4.6-2.2-8.2-4-9.5-4.8c-1.9-1.2-3.9-2.8-4.8-4.9c-0.9-2.2,0.6-3.5,0.4-5.6c-0.1-1.1-1.1-1.9-1.4-3 c-0.1-0.3-0.1-0.7-0.1-1H40.6c-2.5,0-4.6-2.1-4.6-4.6V83.6c0-2.5,2.1-4.6,4.6-4.6h203.5c2.5,0,4.6,2.1,4.6,4.6v216.2 c0.2,0.1,0.3,0.1,0.3,0.1l8.2,3.5c-0.2-2.2-0.5-4.8-1.1-7.6c-1.4-7.8,4.8-7.8,8-1.9C267.2,299.7,279.2,312.8,279.2,312.8z M96.9,203.7H68.4v85.5h28.5L96.9,203.7L96.9,203.7z M156.6,243.6h-28.5v45.6h28.5V243.6z M187.8,289.2h21.3l0,0 c0-0.2,0-0.4,0.1-0.6c0,0,0,0,0,0c0-0.2,0.1-0.4,0.1-0.5c0,0,0-0.1,0-0.1c0.1-0.2,0.1-0.3,0.2-0.4c0,0,0-0.1,0.1-0.1 c0.1-0.1,0.1-0.2,0.2-0.4c0-0.1,0.1-0.1,0.1-0.2c0.1-0.1,0.1-0.2,0.2-0.3c0.1-0.1,0.1-0.1,0.2-0.2c0.1-0.1,0.1-0.1,0.2-0.2 c0.1-0.1,0.2-0.1,0.3-0.2c0.1,0,0.1-0.1,0.2-0.1c0.2-0.1,0.4-0.1,0.6-0.1c0,0,0,0,0,0l0,0l0,0c0.1,0,0.1,0,0.3,0c0,0,0.1,0,0.1,0 c0.1,0,0.2,0,0.3,0.1c0.1,0,0.1,0,0.2,0.1c0.1,0,0.2,0.1,0.3,0.1c0.1,0,0.2,0.1,0.3,0.1c0.1,0,0.2,0.1,0.3,0.1 c0.3,0.1,0.7,0.2,1,0.3c0,0,0.1,0,0.1,0c0.2,0.1,0.5,0.2,0.7,0.2c0,0,0.1,0,0.1,0c0.3,0.1,0.5,0.2,0.8,0.3c0,0,0,0,0,0v-83.5h-28.5 L187.8,289.2L187.8,289.2z" style="fill: rgb(255, 255, 255);"/></g><g id="__id56_s1gyo87vw"><path d="M187.7,112.8c-0.2-1.3-0.8-2.3-1.7-3.2l41.5-18.7c0.9-0.4,2,0,2.4,0.9s0,2-0.9,2.4L187.7,112.8z M160.9,147.6 l20.3-28.9c-1.2-0.3-2.3-1-3-2l-19.3,27.5C160,145,160.7,146.2,160.9,147.6z M209.1,289.2c0.1-1.5,0.9-3.2,2.6-3.3 c0.4,0,2.1,0.5,4.6,1.4v-83.5h-28.5v85.5L209.1,289.2L209.1,289.2z M419.6,357.5l-22.3-130.6c-1.4-8-5.9-14.5-11.9-18.8 c-14.6-14.1-48.2-40.9-48.2-40.9l-35.2,9.9l-13.7-24l-39.5,2.2v144.5c0.2,0.1,0.3,0.1,0.3,0.1l8.1,3.5c-0.2-2.2-0.5-4.8-1.1-7.6 c-1.4-7.8,4.8-7.8,8-1.9s15.1,19,15.1,19l3.9,1.7l-12.9,37.2l-30.4-14c0,0,0,0-0.1,0c-1.8-0.9-3.6-1.7-5.2-2.5 c-4.6-2.2-8.2-4-9.5-4.8c-1.9-1.2-3.9-2.8-4.8-4.9c-0.9-2.2,0.6-3.5,0.4-5.6c-0.1-1.1-1.1-1.9-1.4-3c-0.1-0.3-0.1-0.7-0.1-1h-78.8 c-9.9,42.8-14.9,77.3-14.9,77.3h230l19.2,7.3c3,1.2,6.2,1.8,9.3,2c5.9,1.3,12-0.3,17.5-3.8c6.5-3.5,11.8-9.1,14.8-16.4l0,0 c0.1-0.2,0.1-0.3,0.2-0.5C419.8,374.4,421.1,365.9,419.6,357.5z M151.1,151.1c-0.5-0.8-0.8-1.7-0.8-2.7c0-0.3,0-0.6,0.1-0.8 l-48.6,2.7c0.2,0.6,0.4,1.3,0.4,2c0,0.6-0.1,1.1-0.3,1.6L151.1,151.1z M91.9,153.9L58,184.3c-0.7,0.7-0.8,1.8-0.1,2.5 c0.4,0.4,0.8,0.6,1.3,0.6c0.4,0,0.9-0.2,1.2-0.5l33.8-30.2C93.1,156,92.3,155,91.9,153.9z" style="fill: rgb(178, 193, 255);"/></g><g id="__id57_s1gyo87vw"><path clip-rule="evenodd" d="M36,102.3c-0.7-0.2-1.4-0.5-2.1-0.7l-6.6,7.5c-3.8-1.7-7.3-4-10.5-6.6l3.9-9.2c-2.7-2.6-5.1-5.7-7-9l-9.9,1.5 C2,82.1,0.8,78.1,0,74l8.9-4.5c-0.4-3.8-0.3-7.6,0.4-11.3l-8.5-5.2c1.1-4,2.6-7.9,4.7-11.5l9.7,2.3c2.1-3.2,4.7-6,7.6-8.4l-3.2-9.5 c3.4-2.4,7.1-4.4,11-5.8l6,8c3.7-1.1,7.4-1.6,11.2-1.5l3.6-9.3c4.2,0.3,8.2,1.2,12.2,2.6l-0.5,10c3.5,1.5,6.7,3.6,9.6,6l8.8-4.8 c3,2.9,5.5,6.2,7.6,9.8l-6.8,7.3c1.7,3.4,2.8,7.1,3.5,10.8l9.8,2c0.4,4.1,0.2,8.3-0.5,12.4l-9.9,1.2c-0.4,1.5-0.9,3-1.4,4.5H63.3 c5.5-6.3,6.9-15.6,2.7-23.5C60.7,45.3,48,41.3,37.7,46.7C27.5,52.1,23.6,64.8,29,75c1.7,3.3,4.2,5.9,7.1,7.8c0,0.2-0.1,0.5-0.1,0.8 L36,102.3L36,102.3z M373.2,90.3c0,0,12.4-16.3-7.8-27.5c0,0-2.5-15.8-18.3-14.3c0,0-24.1-14.1-28.3-19.4s-14.7,7.9-10.4,17.7 c0,0-6.1-4.8-8.3-10.6s-18.6,20.3,4.8,31s26.3,9.6,26.3,9.6s-8.9,12.1-5.5,24.8c4.1-0.3,18.9-0.9,19.6,7.6 c0.7,7.8-7.8,11.1-14.5,12.5c-0.1,11.6,1.1,29.2,9.7,30.2c0,0,28.4-23.4,35.5-36.8C383.4,100.9,377.2,92.2,373.2,90.3z M68.4,203.7 v85.5h28.5v-85.5H68.4z M96.9,146.9c-2.9,0-5.3,2.4-5.3,5.3c0,2.9,2.4,5.3,5.3,5.3c2.9,0,5.3-2.4,5.3-5.3 C102.2,149.2,99.8,146.9,96.9,146.9z M182.5,108.3c-2.9,0-5.3,2.4-5.3,5.3c0,2.9,2.4,5.3,5.3,5.3s5.3-2.4,5.3-5.3 S185.4,108.3,182.5,108.3z M155.7,143.1c-2.9,0-5.3,2.4-5.3,5.3s2.4,5.3,5.3,5.3c2.9,0,5.3-2.4,5.3-5.3S158.6,143.1,155.7,143.1z" fill-rule="evenodd" style="fill: rgb(37, 0, 115);"/></g><g id="__id58_s1gyo87vw"><path d="M156.6,243.6v45.6h-28.5v-45.6L156.6,243.6L156.6,243.6z M150.3,23.6l6.9-0.1c0.8,2.7,1.3,5.6,1.4,8.4l-6.5,2.2 c-0.1,2.6-0.6,5.2-1.4,7.7l5.3,4.4c-1.1,2.6-2.6,5.1-4.3,7.4l-6.4-2.5c-1.7,1.9-3.8,3.6-6,5l1.3,6.8c-2.6,1.3-5.3,2.3-8.1,2.9 l-3.3-6c-2.6,0.4-5.2,0.3-7.8,0l-3.4,6c-2.8-0.6-5.5-1.6-8-3l1.3-6.7c-2.2-1.4-4.2-3.1-5.9-5.1l-6.4,2.4c-1.7-2.3-3.2-4.8-4.2-7.4 l5.4-4.3c-0.8-2.5-1.3-5.1-1.3-7.7l-6.5-2.3c0.1-2.9,0.7-5.7,1.5-8.4l6.9,0.1c1-2.4,2.3-4.7,3.9-6.7l-3.5-5.9c2-2.1,4.2-3.9,6.6-5.5 l5.2,4.5c2.3-1.2,4.8-2.1,7.4-2.6l1.1-6.8c2.8-0.3,5.7-0.3,8.6,0.1l1,6.8c2.6,0.5,5,1.5,7.3,2.7l5.2-4.5c2.4,1.6,4.6,3.4,6.5,5.5 l-3.6,5.9C148,18.8,149.3,21.1,150.3,23.6z M136.5,24c-5.1-6.1-14.2-7-20.3-1.9c-6.1,5.1-7,14.2-1.9,20.3c5.1,6.1,14.2,7,20.3,1.9 C140.7,39.3,141.5,30.2,136.5,24z" style="fill: rgb(55, 121, 227);"/></g><g id="__id59_s1gyo87vw"><path d="M296.7,119.2c0.4,0,0.8,0.3,0.8,0.7c0,0.4-0.3,0.8-0.7,0.8c-0.1,0-0.3,0-0.4,0c-5.7,0-8.9-4.9-9-5.2c-0.2-0.4-0.1-0.8,0.2-1 c0.4-0.2,0.8-0.1,1,0.2C288.7,114.8,291.6,119.4,296.7,119.2z M304.9,99.9c1.4,0.5,2.3-1.1,2.8-2.3c0.3-0.9,0.5-1.9,0.2-2.8 c-0.2-0.9-0.9-1.7-2.4-0.8C303.8,95.2,302.8,99.2,304.9,99.9z M305.2,83.7C305.2,83.7,305.2,83.7,305.2,83.7 c6.8-0.2,10.1,4.6,10.2,4.8c0.1,0.2,0.4,0.3,0.6,0.3c0.1,0,0.3,0,0.4-0.1c0.3-0.2,0.4-0.7,0.2-1c-0.2-0.2-3.9-5.7-11.5-5.5 c-0.4,0-0.7,0.4-0.7,0.8C304.5,83.4,304.8,83.7,305.2,83.7z M337.9,167.8c0.5-4.7,1.1-10,1.8-16.1c-0.5-0.1-1-0.3-1.4-0.5 c-0.7,6.2-1.3,11.5-1.8,16.2l0.7-0.2C337.2,167.2,337.4,167.4,337.9,167.8z M278.9,99.4c-0.1-1.4,1.7-2.5,5-4.6 c2.9-1.8,6.5-4.1,9.1-6.8c4.4-4.7,8.9-18.7,9.8-21.8c0.4,0.2,0.9,0.5,1.4,0.7c-1.1,3.5-5.1,16-9.5,21.4l3.1,1.5 c1.9-1.9,4.5-3.1,7.3-3.1c5.7,0,10.3,4.6,10.3,10.3s-4.6,10.3-10.3,10.3s-10.3-4.6-10.3-10.3c0-2.3,0.7-4.4,2-6.1l-3.2-1.5 c-2.7,2.7-6.2,4.9-9,6.7c-1.9,1.2-4.2,2.6-4.3,3.2c0.1,0.9,3.3,3.6,6.2,5.6c0.3,0.2,0.4,0.7,0.2,1c0,0-2.8,4.4-4.1,9.7 c-1.7,6.8-0.4,11.9,4.1,14.9c1.3,0.9,2.9,1.8,4.8,2.7c0.3,0.1,0.5,0.5,0.4,0.8c-2.2,12.7-2.2,12.7-2.2,12.8l-1.2,7l-0.4-0.8l-1,0.1 l1.1-6.6c0-0.2,1.4-8.2,2.1-12.1c-1.8-0.9-3.3-1.7-4.5-2.6c-10.6-7.3-2.7-22.7-0.8-26C283.2,104.4,279,101.3,278.9,99.4z M296.4,97.1c0,4.9,4,8.8,8.8,8.8s8.8-4,8.8-8.8s-4-8.8-8.8-8.8S296.4,92.2,296.4,97.1z M96.9,117.5H68.4c-0.4,0-0.8,0.3-0.8,0.8 v57.3l1.5-1.3V119h27v27.9c0.2,0,0.5-0.1,0.8-0.1s0.5,0,0.8,0.1v-28.7C97.7,117.9,97.3,117.5,96.9,117.5z M279.8,185.7 c0.2,0.4,0.6,0.5,1,0.4l20.7-8l9,18.2c0.1,0.3,0.4,0.4,0.7,0.4c0.1,0,0.2,0,0.3-0.1l39.2-16.4c0.4-0.2,0.6-0.6,0.4-1s-0.6-0.6-1-0.4 l-38.5,16.1l-9-18.2c-0.2-0.3-0.6-0.5-0.9-0.4l-20.7,8l-12.9-29.6c-0.2-0.4-0.6-0.6-1-0.4c-0.4,0.2-0.6,0.6-0.4,1L279.8,185.7z M157.3,165.1v124.1c0,0.4-0.3,0.8-0.8,0.8h-28.5c-0.4,0-0.8-0.3-0.8-0.8V165.1c0-0.4,0.3-0.8,0.8-0.8h28.5 C157,164.3,157.3,164.7,157.3,165.1z M155.8,165.8h-27v122.6h27V165.8z M359.4,326.7c-0.1,0.3-0.4,0.5-0.7,0.5c-0.1,0-0.2,0-0.2,0 l-71.3-24.1l-3.4,11.6c0,0,0,0,0,0s0,0,0,0l-12.9,37.2c0,0,0,0,0,0l-2.6,7.5l71.1,26.9c0.4,0.1,0.6,0.6,0.4,1 c-0.1,0.3-0.4,0.5-0.7,0.5c-0.1,0-0.2,0-0.3,0l-71.7-27.2c-0.4-0.1-0.6-0.6-0.4-0.9l2.6-7.6l-29.5-13.6c-0.1,0-0.2,0-0.3-0.1 c-1.8-0.9-3.6-1.7-5.3-2.5c-5.1-2.4-8.3-4.1-9.6-4.9c-2.6-1.6-4.3-3.4-5.1-5.3c-0.6-1.5-0.3-2.7,0-3.8c0.2-0.7,0.4-1.3,0.3-2.1 c0-0.4-0.3-0.8-0.6-1.3c-0.3-0.4-0.6-1-0.8-1.6c0-0.1-0.1-0.3-0.1-0.4H40.6c-2.9,0-5.3-2.4-5.3-5.3V83.6c0-2.9,2.4-5.3,5.3-5.3 h203.5c2.9,0,5.3,2.4,5.3,5.3v215.7l6.9,2.9c-0.2-2.1-0.5-4.3-0.9-6.3c-0.6-3.5,0.2-6.1,2.3-6.8c2.3-0.8,5.3,1,7.1,4.4 c2.9,5.4,13.7,17.4,14.9,18.7l2.9,1.3l3.3-11.5c0.1-0.2,0.2-0.4,0.4-0.5c0.2-0.1,0.4-0.1,0.6,0l72,24.4 C359.3,325.9,359.5,326.3,359.4,326.7z M221.8,310.2c-0.1-0.1-0.2-0.1-0.3-0.2c-1.6-1.3-1.3-4.1-0.8-5.6c0.2-0.5,1.2-2.3,2.3-3.3 c-1.6-0.9-3.2-1.7-4.7-2.5c-0.4-0.2-0.7-0.4-1.1-0.5c-1.7-0.8-3.3-1.6-4.9-2.6l-0.4-0.3c-1.8-1.2-3.5-2.8-3.6-5.3h-20.6 c-0.4,0-0.8-0.3-0.8-0.8V132.4c0-0.4,0.3-0.8,0.8-0.8h28.5c0.4,0,0.8,0.3,0.8,0.8v154.3c8.3,2.9,23.8,9.1,30.9,12V83.6 c0-2.1-1.7-3.8-3.8-3.8H40.6c-2.1,0-3.8,1.7-3.8,3.8v227.7c0,2.1,1.7,3.8,3.8,3.8h177.8c0-0.5,0.1-1,0.3-1.5 C219.3,311.8,220.5,310.9,221.8,310.2z M211.6,285.1c0.4,0,1.8,0.4,3.9,1.1v-153h-27v155.2h19.9 C208.8,286.8,209.8,285.3,211.6,285.1z M282.1,314.9l-3.2-1.4c-0.1,0-0.2-0.1-0.2-0.2c-0.1-0.1-12.1-13.2-15.2-19.2 c-1.6-3-3.9-4.1-5.3-3.7c-1.3,0.5-1.8,2.4-1.3,5.1c0.5,2.5,0.8,5.1,1.1,7.7c0,0.3-0.1,0.5-0.3,0.7c-0.2,0.2-0.5,0.2-0.7,0.1 l-8.1-3.5c-13.4-5.4-35.2-14-37-14c-1.3,0.1-1.8,1.8-1.9,2.8c-0.1,2,1.1,3.2,3,4.5l0.4,0.3c1.5,1,3,1.7,4.7,2.5 c0.4,0.2,0.8,0.4,1.1,0.5c1.9,1,4,2.1,6.1,3.3l18.8,6.9c0.4,0.1,0.6,0.6,0.4,1c-0.1,0.3-0.4,0.5-0.7,0.5c-0.1,0-0.2,0-0.3,0 l-18.8-6.9c0,0,0,0,0,0s0,0-0.1,0c-0.5,0.1-2.1,2.3-2.3,3c-0.4,1.2-0.5,3.3,0.3,4c0.2,0.2,0.5,0.3,0.7,0.4c0.2,0.1,0.3,0.2,0.5,0.3 l14.3,5.8c0.4,0.2,0.6,0.6,0.4,1c-0.1,0.3-0.4,0.5-0.7,0.5c-0.1,0-0.2,0-0.3-0.1l-14-5.7l-0.1,0.1c-1.5,0.8-2.7,1.4-3.2,3 c-0.3,0.9-0.3,1.7-0.1,2.6c0.1,0.4,0.3,0.7,0.6,1.1c0.3,0.4,0.6,0.9,0.7,1.5l12.2,4.5c0.4,0.1,0.6,0.6,0.4,1 c-0.1,0.3-0.4,0.5-0.7,0.5c-0.1,0-0.2,0-0.3,0l-11.7-4.3c-0.1,0.5-0.2,1-0.3,1.5c-0.3,1-0.5,1.7-0.1,2.8c0.6,1.6,2.1,3.1,4.5,4.6 c1.2,0.7,4.4,2.4,9.4,4.8c1.6,0.8,3.3,1.6,5,2.4c0.1,0,0.2,0,0.3,0.1l29.6,13.7L282.1,314.9z M96.2,157.4v131h-27V179l-1.5,1.3 v108.8c0,0.4,0.3,0.8,0.8,0.8h28.5c0.4,0,0.8-0.3,0.8-0.8V157.4c-0.2,0-0.5,0.1-0.8,0.1C96.6,157.5,96.4,157.4,96.2,157.4z M344.1,263.4c-0.4,0.1-0.7,0.4-0.6,0.9l7.4,47.2c0.1,0.4,0.4,0.6,0.7,0.6c0,0,0.1,0,0.1,0c0.4-0.1,0.7-0.4,0.6-0.9L345,264 C344.9,263.6,344.5,263.3,344.1,263.4z" style="fill: inherit;"/></g></svg>